<?xml version="1.0" encoding="utf-8"?>
<!-- Generator: Adobe Illustrator 17.0.2, SVG Export Plug-In . SVG Version: 6.00 Build 0)  -->
<!DOCTYPE svg PUBLIC "-//W3C//DTD SVG 1.1//EN" "http://www.w3.org/Graphics/SVG/1.1/DTD/svg11.dtd">
<svg version="1.1" id="Layer_1" xmlns="http://www.w3.org/2000/svg" xmlns:xlink="http://www.w3.org/1999/xlink" x="0px" y="0px"
	 width="139.996px" height="139.996px" viewBox="430.876 275.711 139.996 139.996"
	 enable-background="new 430.876 275.711 139.996 139.996" xml:space="preserve">
<g>
	<circle fill="#F04D3E" cx="500.874" cy="345.709" r="69.998"/>
	<g>
		<g>
			<g>
				<g>
					<path fill="#FFFFFF" d="M465.583,311.357l2.576-0.377l3.862,9.896l-2.607,0.382l-0.325-0.938l-2.085,0.306l-0.059,0.995
						l-2.223,0.325L465.583,311.357z M467.149,318.521l1.242-0.182l-0.994-2.939l-0.062,0.009L467.149,318.521z"/>
					<path fill="#FFFFFF" d="M479.126,315.964l-0.987,0.09l0.379,4.136l-2.747,0.252l-0.944-10.309l4.074-0.373
						c1.82-0.166,3.599,0.729,3.784,2.75c0.104,1.127-0.423,2.016-1.101,2.591l1.764,4.646l-2.747,0.252L479.126,315.964z
						 M477.769,312.011l0.187,2.037l0.74-0.067c0.679-0.062,1.028-0.499,0.972-1.116s-0.51-0.98-1.158-0.921L477.769,312.011z"/>
					<path fill="#FFFFFF" d="M494.899,319.206l-7.633,0.301l-0.409-10.342l7.494-0.296l0.084,2.137l-4.737,0.187l0.08,2.044
						l2.509-0.099l0.079,2.013l-2.508,0.099l0.08,2.013l4.876-0.192L494.899,319.206z"/>
					<path fill="#FFFFFF" d="M509.863,319.38l-2.757-0.098l0.291-8.208l-2.57-0.092l0.075-2.137l7.899,0.28l-0.076,2.138
						l-2.571-0.092L509.863,319.38z"/>
					<path fill="#FFFFFF" d="M521.414,315.987l-1.976-0.173l-0.361,4.138l-2.747-0.24l0.899-10.312l2.748,0.24l-0.364,4.168
						l1.977,0.172l0.363-4.168l2.748,0.24l-0.9,10.312l-2.747-0.24L521.414,315.987z"/>
					<path fill="#FFFFFF" d="M535.677,321.962l-7.56-1.098l1.487-10.242l7.421,1.077l-0.307,2.116l-4.692-0.682l-0.294,2.024
						l2.484,0.36l-0.289,1.993l-2.484-0.36l-0.289,1.993l4.829,0.701L535.677,321.962z"/>
				</g>
				<g>
					<path fill="#FFFFFF" d="M468.078,378.451l-0.607,4.107l-2.729-0.403l1.515-10.239l4.047,0.598
						c1.809,0.269,3.329,1.526,3.032,3.535c-0.297,2.008-2.131,2.864-3.939,2.597L468.078,378.451z M468.672,374.435l-0.299,2.023
						l0.735,0.109c0.675,0.099,1.116-0.242,1.207-0.855s-0.264-1.073-0.908-1.169L468.672,374.435z"/>
					<path fill="#FFFFFF" d="M477.614,373.46l2.748,0.241l-0.72,8.182l4.862,0.428l-0.187,2.13l-7.61-0.669L477.614,373.46z"/>
					<path fill="#FFFFFF" d="M491.098,374.415l2.602,0.091l2.021,10.431l-2.633-0.093l-0.151-0.982l-2.106-0.074l-0.236,0.968
						l-2.245-0.078L491.098,374.415z M491.352,381.743l1.254,0.044l-0.45-3.07l-0.062-0.003L491.352,381.743z"/>
					<path fill="#FFFFFF" d="M500.712,379.998l-2.506-5.375l2.883-0.022l1.106,2.72l0.062-0.001l1.157-2.736l2.495-0.019
						l-2.438,5.412l0.038,4.959l-2.759,0.021L500.712,379.998z"/>
					<path fill="#FFFFFF" d="M509.636,374.416l2.755-0.132l0.495,10.34l-2.756,0.131L509.636,374.416z"/>
					<path fill="#FFFFFF" d="M516.688,374.038l2.747-0.254l2.895,5.038l-0.487-5.262l2.314-0.214l0.954,10.308l-2.746,0.254
						l-2.894-5.023l0.485,5.247l-2.314,0.214L516.688,374.038z"/>
					<path fill="#FFFFFF" d="M528.802,377.028c-0.429-2.803,0.998-4.542,3.541-4.932c1.21-0.185,2.542,0.223,3.261,0.614
						l-0.871,2.093c-0.567-0.32-1.397-0.727-2.331-0.584c-0.767,0.117-1.133,0.691-0.969,1.763l0.534,3.493
						c0.134,0.873,0.572,1.182,1.124,1.098s0.904-0.546,0.78-1.358l-0.11-0.72l-1.058,0.162l-0.305-1.991l3.707-0.567l0.9,5.882
						l-0.858,0.132l-0.611-0.722l-0.062,0.009c-0.259,0.464-1.128,1.13-2.078,1.274c-2.129,0.326-3.875-0.943-4.304-3.746
						L528.802,377.028z"/>
				</g>
				<g>
					<path fill="#FFFFFF" d="M443.637,332.311h7.445c3.504,0,6.307,2.541,6.307,6.789v1.971c0,2.277-1.095,4.467-2.759,5.387v0.176
						c1.664,0.788,3.153,3.284,3.153,5.824v1.971c0,4.248-2.585,7.139-5.913,7.139h-8.233L443.637,332.311L443.637,332.311z
						 M448.674,336.822v7.927h1.488c1.227-0.088,1.884-0.92,1.884-3.022V339.8c0-2.189-0.657-2.978-2.059-2.978H448.674z
						 M448.674,349.129v7.927h1.707c1.314,0,2.059-0.832,2.059-3.021v-1.928c0-2.189-0.657-2.978-2.059-2.978H448.674z"/>
					<path fill="#FFFFFF" d="M476.74,361.566h-5.036l-0.395-2.803h-3.197l-0.306,2.803h-4.774l4.424-29.256h4.773L476.74,361.566z
						 M468.595,354.603h2.189l-0.481-4.948c-0.176-1.533-0.438-3.985-0.526-4.817h-0.175c-0.044,0.832-0.263,3.328-0.438,4.817
						L468.595,354.603z"/>
					<path fill="#FFFFFF" d="M489.378,349.129h-1.62v12.438h-5.036v-29.256h7.839c3.329,0,6.088,2.891,6.088,7.14v1.971
						c0,2.364-1.008,4.379-2.496,5.824l2.146,14.321h-5.036L489.378,349.129z M487.758,336.822v7.927h1.489
						c1.313,0,2.059-0.832,2.059-3.022V339.8c0-2.189-0.657-2.978-2.059-2.978H487.758z"/>
					<path fill="#FFFFFF" d="M502.687,339.669c0-4.073,2.146-7.62,7.007-7.62s7.052,3.547,7.052,7.62v14.496
						c0,4.073-2.19,7.665-7.052,7.665s-7.007-3.592-7.007-7.665L502.687,339.669L502.687,339.669z M507.723,338.793v16.248
						c0,1.227,0.789,2.189,1.971,2.189c1.183,0,2.015-0.963,2.015-2.189v-16.248c0-1.227-0.832-2.146-2.015-2.146
						C508.512,336.646,507.723,337.566,507.723,338.793z"/>
					<path fill="#FFFFFF" d="M528.336,347.946h-0.175v13.62h-4.773V332.31h4.948l4.073,13.577h0.175V332.31h4.774v29.256h-4.949
						L528.336,347.946z"/>
					<path fill="#FFFFFF" d="M543.615,360.122l1.664-5.037c0.964,1.183,2.759,2.189,4.248,2.189c2.146,0,3.328-1.183,3.328-2.759
						c0-1.664-0.657-3.022-4.116-5.956c-3.854-3.241-4.817-5.606-4.817-8.584c0-4.643,3.152-7.927,7.62-7.927
						c2.277,0,4.729,0.92,5.912,1.839l-1.664,4.599c-0.92-0.92-2.452-1.796-4.029-1.796c-1.752,0-3.021,0.964-3.021,2.935
						c0,1.445,0.875,2.935,3.985,5.475c4.467,3.679,5.387,6.307,5.387,9.021c0,4.293-3.329,7.709-8.015,7.709
						C547.031,361.83,544.753,360.822,543.615,360.122z"/>
				</g>
			</g>
			<g>
				<path fill="#FFFFFF" d="M491.405,398.197c0.674,0,1.199,0.491,1.199,1.156c0,0.666-0.525,1.147-1.199,1.147
					c-0.675,0-1.2-0.481-1.2-1.147C490.205,398.688,490.73,398.197,491.405,398.197z"/>
				<path fill="#FFFFFF" d="M495.872,398.979c0,0.613,0.254,0.902,0.691,0.902c0.534,0,0.964-0.298,1.253-0.525l0.666,1.095
					c-0.368,0.28-1.078,0.622-1.77,0.622c-1.454,0-2.4-0.85-2.4-2.453v-1.086c0-1.604,0.946-2.452,2.4-2.452
					c0.691,0,1.401,0.341,1.77,0.621l-0.666,1.095c-0.289-0.228-0.719-0.524-1.253-0.524c-0.438,0-0.691,0.289-0.691,0.901V398.979z
					"/>
				<path fill="#FFFFFF" d="M504.057,398.646c0,1.603-0.867,2.436-2.084,2.436c-1.218,0-2.085-0.833-2.085-2.436v-1.139
					c0-1.603,0.867-2.426,2.085-2.426c1.217,0,2.084,0.823,2.084,2.426V398.646z M502.498,396.99c0-0.5-0.21-0.709-0.525-0.709
					s-0.526,0.209-0.526,0.709v2.181c0,0.5,0.211,0.71,0.526,0.71s0.525-0.21,0.525-0.71V396.99z"/>
				<path fill="#FFFFFF" d="M511.543,401.002h-1.48v-4.021h-0.034l-0.92,4.021h-1.104l-0.902-4.021h-0.034v4.021h-1.235v-5.851h2.26
					l0.596,2.338h0.035l0.517-2.338h2.304v5.851H511.543z"/>
			</g>
			<g>
				<g>
					<path fill="#FFFFFF" d="M507.575,294.409c-0.216,0.725-0.546,1.399-0.97,2.005l0.09,0.222h0.577
						c0.271-0.41,0.504-0.848,0.693-1.308L507.575,294.409z"/>
					<path fill="#FFFFFF" d="M493.782,295.328c0.189,0.46,0.422,0.898,0.693,1.308h0.532l0.105-0.26
						c-0.41-0.596-0.729-1.258-0.94-1.967L493.782,295.328z"/>
					<path fill="#FFFFFF" d="M505.879,297.293c-1.271,1.305-3.044,2.119-5.005,2.119c-1.972,0-3.751-0.823-5.023-2.14l-0.273,0.682
						c1.378,1.319,3.244,2.132,5.297,2.132c2.047,0,3.907-0.808,5.283-2.119L505.879,297.293z"/>
					<path fill="#FFFFFF" d="M493.885,292.506c0-0.029-0.005-0.058-0.005-0.088c0-3.856,3.138-6.994,6.994-6.994
						s6.994,3.137,6.994,6.994c0,0.029-0.004,0.058-0.005,0.087l0.552,1.295c0.081-0.449,0.127-0.91,0.127-1.382
						c0-4.228-3.439-7.667-7.668-7.667s-7.668,3.44-7.668,7.667c0,0.472,0.046,0.934,0.128,1.382L493.885,292.506z"/>
				</g>
				<g>
					<g>
						<path fill="#FFFFFF" d="M499.821,296.636l-0.727-1.783h-3.36l-0.727,1.783h-1.782l3.405-8.003h1.612l3.405,8.003H499.821z
							 M497.414,290.733l-1.056,2.577h2.111L497.414,290.733z"/>
						<path fill="#FFFFFF" d="M506.695,296.636l-0.727-1.783h-3.36l-0.727,1.783H500.1l3.405-8.003h1.612l3.405,8.003H506.695z
							 M504.288,290.733l-1.056,2.577h2.112L504.288,290.733z"/>
					</g>
				</g>
				<polygon fill="#FFFFFF" points="500.867,286.927 501.307,287.816 502.288,287.958 501.578,288.65 501.745,289.628 
					500.867,289.166 499.989,289.628 500.157,288.65 499.447,287.958 500.429,287.816 				"/>
			</g>
		</g>
	</g>
</g>
</svg>
